<?xml version="1.0" standalone="no"?><!DOCTYPE svg PUBLIC "-//W3C//DTD SVG 1.1//EN" "http://www.w3.org/Graphics/SVG/1.1/DTD/svg11.dtd"><svg t="1654589320647" class="icon" viewBox="0 0 1024 1024" version="1.1" xmlns="http://www.w3.org/2000/svg" p-id="2193" width="48" height="48" xmlns:xlink="http://www.w3.org/1999/xlink"><defs><style type="text/css">@font-face { font-family: element-icons; src: url("chrome-extension://moombeodfomdpjnpocobemoiaemednkg/fonts/element-icons.woff") format("woff"), url("chrome-extension://moombeodfomdpjnpocobemoiaemednkg/fonts/element-icons.ttf ") format("truetype"); }
</style></defs><path d="M469.333333 762.624A170.752 170.752 0 0 1 512 426.666667a170.666667 170.666667 0 0 1 42.666667 335.957333V853.333333h213.333333v-341.333333a42.666667 42.666667 0 0 1 42.666667-42.666667h16.810666L512 185.386667 196.522667 469.333333H213.333333a42.666667 42.666667 0 0 1 42.666667 42.666667v341.333333h85.333333a42.666667 42.666667 0 0 1 0 85.333334H213.333333a42.666667 42.666667 0 0 1-42.666666-42.666667v-341.333333H85.333333c-39.082667 0-57.6-48.213333-28.544-74.368l426.666667-384a42.666667 42.666667 0 0 1 57.088 0l426.666667 384C996.266667 506.453333 977.749333 554.666667 938.666667 554.666667h-85.333334v341.333333a42.666667 42.666667 0 0 1-42.666666 42.666667h-298.666667a42.666667 42.666667 0 0 1-42.666667-42.666667v-133.376zM512 682.666667a85.333333 85.333333 0 1 0 0-170.666667 85.333333 85.333333 0 0 0 0 170.666667z" p-id="2194"></path></svg>